<?xml version="1.0" encoding="UTF-8"?>
<svg width="113px" height="75px" viewBox="0 0 113 75" version="1.1" xmlns="http://www.w3.org/2000/svg" xmlns:xlink="http://www.w3.org/1999/xlink">
    <!-- Generator: Sketch 52.6 (67491) - http://www.bohemiancoding.com/sketch -->
    <title>Group</title>
    <desc>Created with Sketch.</desc>
    <g id="Page-1" stroke="none" stroke-width="1" fill="none" fill-rule="evenodd">
        <g id="Group">
            <g id="logo" transform="translate(38.000000, 0.000000)" fill="#5DC1BE">
                <g id="noun_Orb-Circle_1862193" transform="translate(0.500000, 0.000000)">
                    <path d="M4.92,16.615 C7.6757271,16.4169331 10.4447931,16.7063648 13.1,17.47 C16.185,18.265 19.55,19.64 22.92,20.835 C26.29,22.03 29.655,23 32.74,23.06 C35.4883918,23.1637763 38.2034042,22.4296592 40.525,20.955 C40.525,20.6 40.525,20.235 40.525,19.875 C40.525,19.32 40.525,18.77 40.46,18.225 L39.96,18.415 C37.625,19.305 34.895,19.375 31.96,18.625 C29.025,17.875 25.96,16.375 22.85,14.87 C19.74,13.365 16.65,11.87 13.74,11.235 C11.1049094,10.5474181 8.32277556,10.6799837 5.765,11.615 C4.02499969,12.3269236 2.41489001,13.3220491 1,14.56 C0.744844966,15.4964149 0.560985704,16.4508116 0.45,17.415 C1.91919646,17.0429145 3.4129495,16.7755761 4.92,16.615 Z" id="Path"></path>
                    <path d="M30,5.815 C32.325,7.815 34.575,9.27 36.675,9.935 C37.147445,10.0931649 37.6302638,10.2184639 38.12,10.31 C37.7266912,9.58386802 37.2892027,8.88255056 36.81,8.21 C36.47,8.03 36.13,7.825 35.81,7.6 C33.6162885,6.08821657 31.6584085,4.26007568 30,2.175 C28.1559641,1.17131216 26.164646,0.465913055 24.1,0.085 C26.1,2.095 28.085,4.155 30,5.815 Z" id="Path"></path>
                    <path d="M7.055,4.9 C9.245,4.19 11.77,4.365 14.47,5.355 C17.17,6.345 20.045,8.085 22.92,9.855 C25.795,11.625 28.67,13.42 31.37,14.44 C34.07,15.46 36.6,15.8 38.79,15.335 C39.1889613,15.2586088 39.5829978,15.1584301 39.97,15.035 C39.805,14.375 39.61,13.735 39.385,13.105 C38.8838339,13.117077 38.3824618,13.0920084 37.885,13.03 C35.65,12.795 33.2,11.72 30.675,10 C28.15,8.28 25.53,6 22.92,3.9 C21.1591998,2.4144557 19.2547977,1.10800573 17.235,0 C13.3959244,0.611934775 9.81745585,2.32647287 6.935,4.935 L7.055,4.9 Z" id="Path"></path>
                    <path d="M31.665,36.57 C28.771163,37.0115737 25.8337001,37.0921902 22.92,36.81 C18.825,36.48 14.725,35.81 11.025,35.525 C9.8,35.415 8.62,35.345 7.495,35.3 C14.3698191,41.0587017 24.2245283,41.5765123 31.665,36.57 Z" id="Path"></path>
                    <path d="M11.71,29.615 C15.185,30.23 19.05,31.21 22.92,31.805 C26.79,32.4 30.65,32.58 34.125,31.635 C35.3503136,31.3147576 36.5360041,30.8585938 37.66,30.275 C38.5909802,28.7314127 39.3107296,27.0699353 39.8,25.335 C37.8352562,26.4265488 35.6528276,27.0686405 33.41,27.215 C30.11,27.485 26.515,26.755 22.91,25.84 C19.305,24.925 15.72,23.84 12.41,23.34 C9.51458693,22.862105 6.56041307,22.862105 3.665,23.34 C2.545,23.515 1.545,23.75 0.695,23.905 C1.00525058,25.4170528 1.4884272,26.8883928 2.135,28.29 L2.74,28.37 C5.14,28.66 8.23,28.955 11.71,29.615 Z" id="Path"></path>
                </g>
            </g>
            <text id="Aprendiendo-a-sutura" font-family="OpenSans-Bold, Open Sans" font-size="10" font-weight="bold" fill="#FFFFFF">
                <tspan x="0" y="60">Aprendiendo a suturar</tspan>
            </text>
            <text id="Barcelona" font-family="OpenSans-Bold, Open Sans" font-size="10" font-weight="bold" fill="#FFFFFF">
                <tspan x="33" y="74">Barcelona</tspan>
            </text>
        </g>
    </g>
</svg>